<svg xmlns="http://www.w3.org/2000/svg" width="400" height="400" viewBox="0 0 400 400" role="img" aria-label="Profile placeholder">
  <defs>
    <linearGradient id="g1" x1="0" x2="1" y1="0" y2="1">
      <stop offset="0%" stop-color="#60a5fa" />
      <stop offset="100%" stop-color="#7c3aed" />
    </linearGradient>
    <filter id="soft" x="-20%" y="-20%" width="140%" height="140%">
      <feGaussianBlur stdDeviation="8" result="b" />
      <feMerge><feMergeNode in="b"/><feMergeNode in="SourceGraphic"/></feMerge>
    </filter>
  </defs>
  <rect width="100%" height="100%" fill="#0b1220" rx="32" />
  <g transform="translate(50,40)">
    <rect x="0" y="0" width="300" height="300" rx="24" fill="#ffffff22" />
    <g transform="translate(50,20)" filter="url(#soft)">
      <circle cx="100" cy="80" r="70" fill="#fff" fill-opacity="0.14" />
      <rect x="30" y="170" width="140" height="80" rx="12" fill="#ffffff22" />
    </g>
    <g transform="translate(0,0)">
      <path d="M100 40c22 0 40 18 40 40s-18 40-40 40-40-18-40-40 18-40 40-40z" fill="#ffffffcc" />
      <rect x="16" y="148" width="160" height="56" rx="12" fill="#ffffff12" />
      <text x="96" y="186" font-size="16" text-anchor="middle" fill="#ffffffcc">nichoe — replace</text>
    </g>
  </g>
  <text x="200" y="365" font-size="12" text-anchor="middle" fill="#ffffffcc" font-family="Inter, Arial">Replace this image with your photo (public/bryllim.svg)</text>
</svg>